<svg width="28" height="28" viewBox="0 0 28 28" fill="none" xmlns="http://www.w3.org/2000/svg">
<path d="M22.0413 19.7833L27.7516 25.4935L25.866 27.3791L20.1557 21.6689C18.1025 23.3115 15.4986 24.2942 12.6666 24.2942C6.04263 24.2942 0.666626 18.9182 0.666626 12.2942C0.666626 5.67019 6.04263 0.294189 12.6666 0.294189C19.2906 0.294189 24.6666 5.67019 24.6666 12.2942C24.6666 15.1262 23.684 17.7301 22.0413 19.7833ZM19.3662 18.7939C20.9966 17.1137 22 14.8217 22 12.2942C22 7.13752 17.8233 2.96086 12.6666 2.96086C7.50996 2.96086 3.33329 7.13752 3.33329 12.2942C3.33329 17.4509 7.50996 21.6275 12.6666 21.6275C15.1941 21.6275 17.4861 20.6242 19.1664 18.9938L19.3662 18.7939Z" fill="white"/>
</svg>
