<svg width="28" height="27" viewBox="0 0 28 27" fill="none" xmlns="http://www.w3.org/2000/svg">
<path d="M7.72152 25.3931L0.666626 26.9609L2.23437 19.9059C1.23388 18.035 0.666626 15.8975 0.666626 13.6275C0.666626 6.26372 6.63616 0.294189 14 0.294189C21.3637 0.294189 27.3333 6.26372 27.3333 13.6275C27.3333 20.9913 21.3637 26.9609 14 26.9609C11.73 26.9609 9.59249 26.3937 7.72152 25.3931ZM8.10763 22.5755L8.979 23.0415C10.5099 23.8602 12.2206 24.2942 14 24.2942C19.891 24.2942 24.6666 19.5186 24.6666 13.6275C24.6666 7.73648 19.891 2.96086 14 2.96086C8.10892 2.96086 3.33329 7.73648 3.33329 13.6275C3.33329 15.4069 3.76728 17.1175 4.58595 18.6485L5.05191 19.5198L4.17884 23.4486L8.10763 22.5755Z" fill="white"/>
</svg>
