<svg width="28" height="27" viewBox="0 0 28 27" fill="none" xmlns="http://www.w3.org/2000/svg">
<path d="M14 0.294189C21.3638 0.294189 27.3334 6.26372 27.3334 13.6275C27.3334 20.9913 21.3638 26.9609 14 26.9609C6.63622 26.9609 0.666687 20.9913 0.666687 13.6275C0.666687 6.26372 6.63622 0.294189 14 0.294189ZM14.213 18.9609C11.4991 18.9609 9.05578 20.1191 7.35037 21.9683C9.17387 23.4241 11.4854 24.2942 14 24.2942C16.626 24.2942 19.0303 23.3453 20.8888 21.7717C19.1942 20.0374 16.8292 18.9609 14.213 18.9609ZM14 2.96086C8.10898 2.96086 3.33335 7.73648 3.33335 13.6275C3.33335 16.0417 4.13535 18.2685 5.48745 20.0561C7.67521 17.7397 10.7753 16.2942 14.213 16.2942C17.5255 16.2942 20.5244 17.6363 22.6958 19.8065C23.9368 18.0631 24.6667 15.9306 24.6667 13.6275C24.6667 7.73648 19.8911 2.96086 14 2.96086ZM14 4.29419C16.9455 4.29419 19.3334 6.682 19.3334 9.62752C19.3334 12.573 16.9455 14.9609 14 14.9609C11.0545 14.9609 8.66669 12.573 8.66669 9.62752C8.66669 6.682 11.0545 4.29419 14 4.29419ZM14 6.96086C12.5272 6.96086 11.3334 8.15476 11.3334 9.62752C11.3334 11.1003 12.5272 12.2942 14 12.2942C15.4728 12.2942 16.6667 11.1003 16.6667 9.62752C16.6667 8.15476 15.4728 6.96086 14 6.96086Z" fill="white"/>
</svg>
